Coordinates
version=1
nRows=11
nColumns=36
inDegrees=yes

Units are S.I. units (second, meters, Newtons, ...)
If the header above contains a line with 'inDegrees', this indicates whether rotational values are in degrees (yes) or radians (no).

endheader
time	pelvis_tilt	pelvis_list	pelvis_rotation	pelvis_tx	pelvis_ty	pelvis_tz	hip_flexion_r	hip_adduction_r	hip_rotation_r	knee_angle_r	knee_angle_r_beta	ankle_angle_r	subtalar_angle_r	mtp_angle_r	hip_flexion_l	hip_adduction_l	hip_rotation_l	knee_angle_l	knee_angle_l_beta	ankle_angle_l	subtalar_angle_l	mtp_angle_l	lumbar_extension	lumbar_bending	lumbar_rotation	arm_flex_r	arm_add_r	arm_rot_r	elbow_flex_r	pro_sup_r	arm_flex_l	arm_add_l	arm_rot_l	elbow_flex_l	pro_sup_l
      2.55000000	     -8.23824972	     -0.08032694	      1.04133805	      0.80363610	      1.35851745	     -0.06834900	     16.09730700	     -6.02608121	     -6.27961552	     10.40877360	      0.18166737	    -17.13790972	     -1.54761785	     -7.49999984	     14.04421133	     -4.44223212	     -5.00486684	      9.07098029	      0.15831847	    -13.26617088	      1.20334325	     -7.49999984	    -11.17706389	     -1.01944068	     -7.34515987	    -30.97121063	    -37.13091841	     27.67705769	     65.96430631	     75.67220539	    -51.69477970	    -31.43506095	      8.34252249	     71.44482006	     79.98224827
      2.56666670	     -8.36887694	      0.11390085	      1.06408410	      0.82687070	      1.31889246	     -0.06502155	     18.26116311	     -6.93548462	     -6.83002984	      9.57700626	      0.16715029	    -17.80749520	     -1.19028712	     -7.49999984	     15.99105480	     -4.39547065	     -4.75622395	      8.38288602	      0.14630896	    -13.25933989	      0.78791177	     -7.49999984	    -11.84411595	     -1.31557233	     -6.88481800	    -32.91186313	    -37.26702383	     28.53853325	     65.75541395	     75.41730048	    -52.95020577	    -32.02121555	      8.26265096	     71.84940346	     79.67439091
      2.58333330	     -8.48529362	      0.08623831	      1.05446485	      0.84734421	      1.28271162	     -0.06017737	     19.81176043	     -7.41213465	     -7.76684633	      8.28490835	      0.14459893	    -17.84473657	     -0.68478475	     -7.49999984	     18.21607546	     -4.79373904	     -4.07201840	      8.04295501	      0.14037605	    -13.36922967	     -0.58355594	     -7.49999984	    -12.30593768	     -1.50478717	     -6.42498328	    -33.77263188	    -37.16596615	     29.34125581	     65.39423083	     74.56373022	    -53.87426054	    -33.01357789	      8.65747879	     73.42859617	     78.90342462
      2.60000000	     -8.26488821	     -0.09470913	      1.16112872	      0.86938970	      1.25166642	     -0.05674442	     21.19459071	     -7.59004228	     -8.96694365	      7.71378358	      0.13463092	    -18.57973401	     -0.62413746	     -7.49999984	     19.46405555	     -5.20293700	     -4.50609954	      7.44451208	      0.12993125	    -14.21221248	     -0.83869421	     -7.49999984	    -12.80291895	     -1.49330734	     -6.32969804	    -33.94418881	    -37.02675302	     29.77565151	     65.77067146	     74.43916776	    -54.00688712	    -33.44837816	      8.71688567	     74.25281420	     78.73679994
      2.61666670	     -8.19010889	     -0.45488683	      1.54941273	      0.90211694	      1.21071598	     -0.06393861	     21.72175830	     -7.67770260	    -10.50993571	      6.98840508	      0.12197068	    -18.71858546	      0.23558857	     -7.49999985	     20.88113451	     -5.62327662	     -4.29077539	      7.30600341	      0.12751381	    -15.39923137	     -2.25781893	     -7.49999985	    -12.51613227	     -1.33887376	     -6.03251560	    -34.43050535	    -37.18385621	     31.01202546	     66.13787222	     73.99449099	    -54.57062531	    -34.61515175	      9.50636189	     76.87225453	     78.30722327
      2.63333330	     -7.81462411	     -0.62614666	      1.24232306	      0.91725555	      1.17679355	     -0.06373315	     23.43730546	     -7.99082742	    -11.14689238	      8.49768811	      0.14831264	    -18.59603848	      0.68849860	     -7.49999985	     21.84107561	     -5.81718753	     -3.75376451	      7.49572360	      0.13082506	    -16.20275556	     -3.13939957	     -7.49999985	    -13.36274538	     -1.06682315	     -6.13039606	    -32.62587068	    -37.88017266	     34.12657893	     65.38402089	     64.22256986	    -53.57193836	    -34.63393934	     11.98813356	     76.88997994	     70.20617790
      2.65000000	     -7.41619126	     -0.85122101	      0.95263192	      0.93568601	      1.12804645	     -0.05877325	     25.05015768	     -8.08499203	    -11.86803485	     10.07391280	      0.17582295	    -18.27741932	      0.92203059	     -7.49999986	     23.17227280	     -6.16591333	     -3.13442287	      8.57521730	      0.14966578	    -16.70133572	     -4.65255868	     -7.49999986	    -14.52423222	     -0.87634640	     -6.18530654	    -30.63062377	    -37.45161694	     34.16897733	     63.89052583	     63.99373863	    -51.81687500	    -34.02749599	     13.11821865	     76.12471228	     69.89120718
      2.66666670	     -7.25717515	     -1.25728936	      0.95950868	      0.96045436	      1.07723558	     -0.04735640	     26.79226366	     -8.04164317	    -12.66792843	     12.70950529	      0.22182271	    -15.41606652	      0.60219830	     -7.49999986	     24.36151554	     -6.53676291	     -2.78120393	     10.53225759	      0.18382257	    -14.60642779	     -6.64511944	     -7.49999986	    -14.88038119	     -0.56827398	     -6.22252444	    -27.52934586	    -37.21494163	     35.61309645	     62.44039962	     63.51194300	    -49.31018460	    -34.44222254	     15.85973418	     75.05258793	     68.85778220
      2.68333330	     -7.39833526	     -1.79510451	      0.94701732	      0.97112655	      1.03103243	     -0.04730564	     29.36029790	     -8.03263543	    -13.46750177	     18.20894918	      0.31780612	     -9.18273709	     -0.37243735	     -7.49999986	     27.35155728	     -6.89455653	     -1.58155906	     16.31238232	      0.28470478	     -9.96882730	    -10.26355961	     -7.49999986	    -15.64039778	     -0.01869577	     -6.56404787	    -23.95528587	    -36.16607781	     34.80234378	     60.39943987	     62.89940334	    -46.42316376	    -33.61621304	     17.21639649	     72.87599533	     67.78604549
      2.70000000	     -8.61535795	     -1.78487641	      0.66194067	      1.00253064	      0.99419830	     -0.05717199	     34.39555223	     -9.38483998	    -14.07699133	     27.62047542	      0.48206824	     -2.25311241	     -2.34304995	     -7.49999986	     31.73131290	     -6.57950315	     -0.71148506	     24.20006603	      0.42237083	     -2.93953806	    -13.59104388	     -7.49999986	    -14.75245939	      0.13321023	     -6.42114971	    -20.38186025	    -34.80921166	     34.11888503	     56.60650308	     61.84473033	    -42.18014463	    -32.44934448	     20.81586010	     68.55832236	     65.73081467
      2.71666670	     -9.77685401	     -1.27168707	      0.29169149	      1.01862623	      0.98501000	     -0.05430179	     39.94811391	    -11.20729112	    -13.46904746	     37.84753398	      0.66056408	      4.32810879	     -4.27269817	     -7.49999987	     37.45631053	     -5.83334202	      0.09083340	     34.71084676	      0.60581856	      5.06362097	    -16.14311180	     -7.49999987	    -14.29341812	     -0.08265475	     -6.02897387	    -16.36223735	    -31.47445865	     29.37530563	     50.68815603	     58.93742785	    -35.92207736	    -30.40103049	     24.50161115	     61.69765229	     61.53674451
